<svg xmlns="http://www.w3.org/2000/svg"  viewBox="0 0 100 100" width="100px" height="100px"><path fill="#c7ede6" d="M87.215,56.71C88.35,54.555,89,52.105,89,49.5c0-6.621-4.159-12.257-10.001-14.478 C78.999,35.015,79,35.008,79,35c0-11.598-9.402-21-21-21c-9.784,0-17.981,6.701-20.313,15.757C36.211,29.272,34.638,29,33,29 c-7.692,0-14.023,5.793-14.89,13.252C12.906,43.353,9,47.969,9,53.5C9,59.851,14.149,65,20.5,65c0.177,0,0.352-0.012,0.526-0.022 C21.022,65.153,21,65.324,21,65.5C21,76.822,30.178,86,41.5,86c6.437,0,12.175-2.972,15.934-7.614C59.612,80.611,62.64,82,66,82 c4.65,0,8.674-2.65,10.666-6.518C77.718,75.817,78.837,76,80,76c6.075,0,11-4.925,11-11C91,61.689,89.53,58.727,87.215,56.71z"/><path fill="#fdfcef" d="M33.5,43.5V44h3v-0.5c0,0,4.242,0,5.5,0c2.485,0,4.5-2.015,4.5-4.5 c0-2.333-1.782-4.229-4.055-4.455C42.467,34.364,42.5,34.187,42.5,34c0-2.485-2.015-4.5-4.5-4.5c-1.438,0-2.703,0.686-3.527,1.736 C34.333,28.6,32.171,26.5,29.5,26.5c-2.761,0-5,2.239-5,5c0,0.446,0.077,0.87,0.187,1.282C24.045,32.005,23.086,31.5,22,31.5 c-1.781,0-3.234,1.335-3.455,3.055C18.364,34.533,18.187,34.5,18,34.5c-2.485,0-4.5,2.015-4.5,4.5s2.015,4.5,4.5,4.5s9.5,0,9.5,0 H33.5z"/><path fill="#472b29" d="M29.5,26c-3.033,0-5.5,2.467-5.5,5.5c0,0.016,0,0.031,0,0.047C23.398,31.192,22.71,31,22,31 c-1.831,0-3.411,1.261-3.858,3.005C18.095,34.002,18.048,34,18,34c-2.757,0-5,2.243-5,5s2.243,5,5,5h15.5 c0.276,0,0.5-0.224,0.5-0.5S33.776,43,33.5,43H18c-2.206,0-4-1.794-4-4s1.794-4,4-4c0.117,0,0.23,0.017,0.343,0.032l0.141,0.019 c0.021,0.003,0.041,0.004,0.062,0.004c0.246,0,0.462-0.185,0.495-0.437C19.232,33.125,20.504,32,22,32 c0.885,0,1.723,0.401,2.301,1.1c0.098,0.118,0.241,0.182,0.386,0.182c0.078,0,0.156-0.018,0.228-0.056 c0.209-0.107,0.314-0.346,0.254-0.573C25.054,32.218,25,31.852,25,31.5c0-2.481,2.019-4.5,4.5-4.5 c2.381,0,4.347,1.872,4.474,4.263c0.011,0.208,0.15,0.387,0.349,0.45c0.05,0.016,0.101,0.024,0.152,0.024 c0.15,0,0.296-0.069,0.392-0.192C35.638,30.563,36.779,30,38,30c2.206,0,4,1.794,4,4c0,0.117-0.017,0.23-0.032,0.343l-0.019,0.141 c-0.016,0.134,0.022,0.268,0.106,0.373c0.084,0.105,0.207,0.172,0.34,0.185C44.451,35.247,46,36.949,46,39c0,2.206-1.794,4-4,4 h-5.5c-0.276,0-0.5,0.224-0.5,0.5s0.224,0.5,0.5,0.5H42c2.757,0,5-2.243,5-5c0-2.397-1.689-4.413-4.003-4.877 C42.999,34.082,43,34.041,43,34c0-2.757-2.243-5-5-5c-1.176,0-2.293,0.416-3.183,1.164C34.219,27.76,32.055,26,29.5,26L29.5,26z"/><path fill="#472b29" d="M28,33c-1.403,0-2.609,0.999-2.913,2.341C24.72,35.119,24.301,35,23.875,35 c-1.202,0-2.198,0.897-2.353,2.068C21.319,37.022,21.126,37,20.937,37c-1.529,0-2.811,1.2-2.918,2.732 C18.01,39.87,18.114,39.99,18.251,40c0.006,0,0.012,0,0.018,0c0.13,0,0.24-0.101,0.249-0.232c0.089-1.271,1.151-2.268,2.419-2.268 c0.229,0,0.47,0.042,0.738,0.127c0.022,0.007,0.045,0.01,0.067,0.01c0.055,0,0.11-0.02,0.156-0.054 C21.962,37.537,22,37.455,22,37.375c0-1.034,0.841-1.875,1.875-1.875c0.447,0,0.885,0.168,1.231,0.473 c0.047,0.041,0.106,0.063,0.165,0.063c0.032,0,0.063-0.006,0.093-0.019c0.088-0.035,0.148-0.117,0.155-0.212 C25.623,34.512,26.712,33.5,28,33.5c0.208,0,0.425,0.034,0.682,0.107c0.023,0.007,0.047,0.01,0.07,0.01 c0.109,0,0.207-0.073,0.239-0.182c0.038-0.133-0.039-0.271-0.172-0.309C28.517,33.04,28.256,33,28,33L28,33z"/><path fill="#472b29" d="M41.883,34.5c-1.326,0-2.508,0.897-2.874,2.182c-0.038,0.133,0.039,0.271,0.172,0.309 C39.205,36.997,39.228,37,39.25,37c0.109,0,0.209-0.072,0.24-0.182C39.795,35.748,40.779,35,41.883,35 c0.117,0,0.23,0.014,0.342,0.029c0.012,0.002,0.023,0.003,0.035,0.003c0.121,0,0.229-0.092,0.246-0.217 c0.019-0.137-0.077-0.263-0.214-0.281C42.158,34.516,42.022,34.5,41.883,34.5L41.883,34.5z"/><path fill="#fff" d="M15.5,55h-10C5.224,55,5,54.776,5,54.5S5.224,54,5.5,54h10c0.276,0,0.5,0.224,0.5,0.5 S15.777,55,15.5,55z"/><path fill="#fff" d="M18.5,55h-1c-0.276,0-0.5-0.224-0.5-0.5s0.224-0.5,0.5-0.5h1c0.276,0,0.5,0.224,0.5,0.5 S18.777,55,18.5,55z"/><path fill="#fff" d="M23.491,57H14.5c-0.276,0-0.5-0.224-0.5-0.5s0.224-0.5,0.5-0.5h8.991c0.276,0,0.5,0.224,0.5,0.5 S23.767,57,23.491,57z"/><path fill="#fff" d="M12.5,57h-1c-0.276,0-0.5-0.224-0.5-0.5s0.224-0.5,0.5-0.5h1c0.276,0,0.5,0.224,0.5,0.5 S12.777,57,12.5,57z"/><path fill="#fff" d="M9.5,57h-2C7.224,57,7,56.776,7,56.5S7.224,56,7.5,56h2c0.276,0,0.5,0.224,0.5,0.5S9.777,57,9.5,57 z"/><path fill="#fff" d="M15.5,59h-2c-0.276,0-0.5-0.224-0.5-0.5s0.224-0.5,0.5-0.5h2c0.276,0,0.5,0.224,0.5,0.5 S15.776,59,15.5,59z"/><path fill="#fff" d="M18.5,50c-0.177,0-0.823,0-1,0c-0.276,0-0.5,0.224-0.5,0.5c0,0.276,0.224,0.5,0.5,0.5 c0.177,0,0.823,0,1,0c0.276,0,0.5-0.224,0.5-0.5C19,50.224,18.776,50,18.5,50z"/><path fill="#fff" d="M18.5,52c-0.177,0-4.823,0-5,0c-0.276,0-0.5,0.224-0.5,0.5c0,0.276,0.224,0.5,0.5,0.5 c0.177,0,4.823,0,5,0c0.276,0,0.5-0.224,0.5-0.5C19,52.224,18.776,52,18.5,52z"/><path fill="#fff" d="M23.5,54c-0.177,0-2.823,0-3,0c-0.276,0-0.5,0.224-0.5,0.5c0,0.276,0.224,0.5,0.5,0.5 c0.177,0,2.823,0,3,0c0.276,0,0.5-0.224,0.5-0.5C24,54.224,23.776,54,23.5,54z"/><path fill="#fff" d="M85.5,46h-10c-0.276,0-0.5-0.224-0.5-0.5s0.224-0.5,0.5-0.5h10c0.276,0,0.5,0.224,0.5,0.5 S85.776,46,85.5,46z"/><path fill="#fff" d="M89.5,46h-2c-0.276,0-0.5-0.224-0.5-0.5s0.224-0.5,0.5-0.5h2c0.276,0,0.5,0.224,0.5,0.5 S89.776,46,89.5,46z"/><path fill="#fff" d="M94.5,48h-10c-0.276,0-0.5-0.224-0.5-0.5s0.224-0.5,0.5-0.5h10c0.276,0,0.5,0.224,0.5,0.5 S94.777,48,94.5,48z"/><path fill="#fff" d="M82.5,48h-1c-0.276,0-0.5-0.224-0.5-0.5s0.224-0.5,0.5-0.5h1c0.276,0,0.5,0.224,0.5,0.5 S82.776,48,82.5,48z"/><path fill="#fff" d="M79.47,48H77.5c-0.276,0-0.5-0.224-0.5-0.5s0.224-0.5,0.5-0.5h1.97c0.276,0,0.5,0.224,0.5,0.5 S79.746,48,79.47,48z"/><path fill="#fff" d="M88.5,44h-5c-0.276,0-0.5-0.224-0.5-0.5s0.224-0.5,0.5-0.5h5c0.276,0,0.5,0.224,0.5,0.5 S88.777,44,88.5,44z"/><path fill="#fff" d="M85.5,50h-2c-0.276,0-0.5-0.224-0.5-0.5s0.224-0.5,0.5-0.5h2c0.276,0,0.5,0.224,0.5,0.5 S85.776,50,85.5,50z"/><g><polygon fill="#6f913d" points="70.333,31 65.611,31 61.833,27 59,76 76,72"/><path fill="#472b29" d="M59,76.7c-0.163,0-0.323-0.058-0.45-0.164c-0.169-0.143-0.262-0.355-0.249-0.576l2.833-49 c0.017-0.279,0.197-0.521,0.459-0.617c0.266-0.098,0.558-0.026,0.749,0.177l3.571,3.78h4.42c0.35,0,0.646,0.258,0.693,0.604 l5.667,41c0.05,0.357-0.182,0.694-0.533,0.777l-17,4C59.107,76.694,59.054,76.7,59,76.7z M62.438,28.66l-2.686,46.443l15.467-3.639 L69.723,31.7h-4.111c-0.192,0-0.377-0.079-0.509-0.22L62.438,28.66z"/></g><g><path fill="#6f913d" d="M47.292,34.348l-2.751-0.695c1.505-6.707,5.096-11.293,8.934-11.41 c1.702-0.06,4.81,0.766,6.525,6.827l-2.709,0.861c-0.845-2.986-2.181-4.69-3.674-4.69c-0.02,0-0.04,0-0.06,0.001 C51.497,25.304,48.601,28.517,47.292,34.348z"/><path fill="#472b29" d="M47.292,35.048c-0.057,0-0.115-0.007-0.171-0.021l-2.751-0.695 c-0.368-0.093-0.595-0.462-0.512-0.832c1.577-7.024,5.433-11.829,9.596-11.956c1.884-0.102,5.369,0.796,7.22,7.336 c0.103,0.363-0.102,0.743-0.462,0.857l-2.709,0.861c-0.181,0.058-0.376,0.039-0.544-0.051c-0.166-0.09-0.29-0.243-0.342-0.426 c-0.741-2.618-1.862-4.181-3-4.181c-1.578,0.047-4.334,2.733-5.642,8.561c-0.042,0.185-0.156,0.344-0.316,0.443 C47.548,35.013,47.421,35.048,47.292,35.048z M45.381,33.143l1.395,0.353c1.472-5.791,4.469-8.884,6.76-8.953 c0.001,0,0.002,0,0.002,0c1.797,0,3.256,1.593,4.216,4.507l1.377-0.438c-1.609-5.027-4.183-5.694-5.631-5.67 C50.106,23.045,46.891,27.115,45.381,33.143z"/></g><g><path fill="#88ae45" d="M55.413,28.995c-0.385-5.258-3.05-9.092-5.97-9.415c-4.716-0.553-9.386,7.752-11.514,14.66 L33.062,36l-4,34l30,6l3-49L55.413,28.995z M49.113,22.562c1.025,0.114,3.134,2.858,3.351,7.318l-10.961,3.288 C43.718,27.771,46.848,22.311,49.113,22.562z"/><path fill="#472b29" d="M59.063,76.7c-0.046,0-0.092-0.005-0.138-0.014l-30-6c-0.358-0.071-0.601-0.406-0.558-0.769l4-34 c0.031-0.263,0.208-0.486,0.457-0.576l4.54-1.642c2.411-7.605,7.203-15.388,12.16-14.815c3.233,0.356,5.89,4.166,6.503,9.194 l5.834-1.75c0.22-0.066,0.457-0.019,0.636,0.122c0.18,0.143,0.278,0.363,0.264,0.592l-3,49c-0.012,0.202-0.111,0.389-0.271,0.512 C59.366,76.649,59.216,76.7,59.063,76.7z M29.833,69.44l28.58,5.716l2.89-47.197l-5.688,1.706 c-0.205,0.062-0.424,0.026-0.599-0.095c-0.175-0.12-0.285-0.313-0.301-0.525c-0.344-4.7-2.644-8.471-5.349-8.77 c-4.003-0.457-8.544,6.95-10.769,14.171c-0.064,0.21-0.224,0.378-0.431,0.452l-4.46,1.612L29.833,69.44z M41.503,33.868 c-0.194,0-0.384-0.081-0.519-0.23c-0.181-0.199-0.231-0.485-0.129-0.735c1.411-3.439,5.047-11.418,8.334-11.036h0 c1.505,0.167,3.744,3.284,3.973,7.979c0.016,0.321-0.189,0.612-0.498,0.705l-10.961,3.288 C41.638,33.858,41.57,33.868,41.503,33.868z M48.957,23.253c-1.227,0-3.669,2.982-6.228,8.816l8.999-2.699 c-0.344-3.964-2.216-6.034-2.693-6.113C49.009,23.254,48.983,23.253,48.957,23.253z"/></g><g><path fill="#fff" d="M53.812,39.625c-1-1-11.787-4.125-14.812,5.375c-3.125,9.813,6.5,10.313,5.5,14.313S37,58,37,58 l-1.5,5.375C36,65,48.125,70.625,51,61c3.165-10.595-8.625-9.688-6.625-14.688c0.83-2.076,4.312-2.625,7.312-0.625 C52.5,43.5,53.812,39.625,53.812,39.625z"/></g><g><path fill="#472b29" d="M49.767,53.515c-0.136,0-0.271-0.056-0.37-0.164c-0.807-0.889-1.789-1.564-2.738-2.219 c-1.915-1.318-3.725-2.563-2.748-5.005c0.367-0.917,1.176-1.611,2.277-1.953c1.598-0.495,3.517-0.206,5.241,0.768 c0.645-1.774,1.484-4.225,1.791-5.126c-1.215-0.665-6.028-1.946-9.797,0.172c-0.241,0.136-0.545,0.051-0.681-0.19 c-0.135-0.241-0.05-0.546,0.191-0.681c4.51-2.538,10.346-0.732,11.233,0.155c0.135,0.135,0.181,0.334,0.12,0.514 c-0.014,0.039-1.324,3.907-2.13,6.076c-0.054,0.144-0.169,0.255-0.314,0.302c-0.147,0.046-0.305,0.024-0.432-0.06 c-1.581-1.054-3.467-1.43-4.926-0.975c-0.808,0.251-1.392,0.737-1.645,1.369c-0.649,1.624,0.372,2.423,2.387,3.811 c0.95,0.654,2.026,1.396,2.911,2.37c0.186,0.204,0.17,0.521-0.034,0.706C50.007,53.472,49.887,53.515,49.767,53.515z"/></g><g><path fill="#472b29" d="M51,61.5c-0.047,0-0.095-0.007-0.143-0.021c-0.265-0.079-0.415-0.358-0.336-0.622 c0.716-2.401,0.697-4.345-0.061-5.943c-0.119-0.249-0.012-0.547,0.237-0.666c0.25-0.118,0.549-0.012,0.666,0.238 c0.868,1.831,0.906,4.009,0.116,6.656C51.414,61.36,51.216,61.5,51,61.5z"/></g><g><path fill="#472b29" d="M43.729,66.989c-0.415,0-0.817-0.023-1.201-0.062c-3.432-0.343-7.138-2.209-7.506-3.405 c-0.028-0.092-0.029-0.189-0.003-0.282l1.5-5.375c0.045-0.162,0.169-0.291,0.331-0.342c0.159-0.052,0.336-0.018,0.467,0.09 c0.007,0.006,0.751,0.61,1.75,1.242c0.233,0.147,0.303,0.456,0.156,0.69c-0.147,0.233-0.455,0.303-0.69,0.155 c-0.497-0.313-0.929-0.618-1.25-0.854l-1.25,4.478c0.48,0.651,3.519,2.392,6.916,2.636c2.211,0.16,5.195-0.294,6.858-3.356 c0.132-0.243,0.435-0.332,0.678-0.201c0.243,0.132,0.333,0.436,0.201,0.678C48.991,66.201,46.156,66.988,43.729,66.989z"/></g><g><path fill="#472b29" d="M42.693,61.303c-0.595,0-1.286-0.163-2.067-0.487c-0.255-0.106-0.376-0.398-0.27-0.653 c0.106-0.256,0.398-0.375,0.654-0.271c1.036,0.431,1.845,0.525,2.343,0.276c0.321-0.162,0.538-0.481,0.662-0.977 c0.295-1.18-0.549-1.978-2.067-3.286c-1.982-1.709-4.696-4.049-3.946-8.889c0.042-0.273,0.296-0.46,0.571-0.418 c0.273,0.042,0.46,0.298,0.417,0.57c-0.666,4.292,1.606,6.251,3.61,7.979c1.462,1.26,2.843,2.45,2.384,4.285 c-0.196,0.784-0.594,1.331-1.183,1.628C43.482,61.223,43.111,61.303,42.693,61.303z"/></g><g><path fill="#472b29" d="M39,45.5c-0.05,0-0.101-0.008-0.152-0.023c-0.263-0.084-0.408-0.365-0.325-0.628 c0.512-1.606,1.273-2.965,2.263-4.036c0.187-0.204,0.503-0.215,0.707-0.028c0.203,0.188,0.215,0.504,0.028,0.706 c-0.89,0.964-1.577,2.195-2.044,3.661C39.409,45.364,39.212,45.5,39,45.5z"/></g><g><path fill="#472b29" d="M51.348,33.78c-0.109,0-0.209-0.071-0.24-0.182c-0.038-0.133,0.039-0.271,0.172-0.309l7.152-2.03 c0.133-0.035,0.271,0.04,0.309,0.172c0.038,0.133-0.039,0.271-0.172,0.309l-7.152,2.03C51.394,33.777,51.37,33.78,51.348,33.78z"/></g><g><path fill="#472b29" d="M41.355,36.616c-0.109,0-0.209-0.071-0.241-0.182c-0.038-0.133,0.04-0.271,0.172-0.309l7.779-2.208 c0.134-0.04,0.271,0.039,0.309,0.172s-0.04,0.271-0.172,0.309l-7.779,2.208C41.4,36.613,41.377,36.616,41.355,36.616z"/></g><g><path fill="#472b29" d="M33.5,51.75c-0.009,0-0.018,0-0.027-0.001c-0.137-0.016-0.236-0.139-0.222-0.275l1.438-13.313 c0.011-0.102,0.082-0.187,0.18-0.214l4.129-1.172c0.134-0.042,0.271,0.039,0.309,0.172c0.038,0.133-0.04,0.271-0.172,0.309 l-3.967,1.126l-1.419,13.145C33.735,51.655,33.626,51.75,33.5,51.75z"/></g><g><path fill="#472b29" d="M56.658,57.502c-0.005,0-0.011,0-0.017-0.001c-0.138-0.009-0.242-0.128-0.232-0.266l0.342-5.189 c0.009-0.137,0.103-0.241,0.266-0.232c0.138,0.009,0.242,0.128,0.232,0.266l-0.342,5.189C56.899,57.4,56.789,57.502,56.658,57.502z"/></g><g><path fill="#472b29" d="M56.087,66.185c-0.005,0-0.011,0-0.017-0.001c-0.138-0.009-0.242-0.128-0.232-0.266l0.419-6.372 c0.008-0.137,0.108-0.248,0.266-0.232c0.138,0.009,0.242,0.128,0.232,0.266l-0.419,6.372 C56.328,66.083,56.218,66.185,56.087,66.185z"/></g><g><path fill="#472b29" d="M55.688,72.25c-0.012,0-0.023-0.001-0.035-0.002l-8-1.125c-0.137-0.02-0.232-0.146-0.213-0.283 c0.02-0.137,0.149-0.216,0.282-0.213l7.734,1.088l0.222-3.361c0.009-0.137,0.104-0.26,0.266-0.232 c0.138,0.009,0.242,0.128,0.232,0.266l-0.239,3.63c-0.004,0.069-0.037,0.134-0.092,0.178C55.801,72.23,55.744,72.25,55.688,72.25z"/></g><g><path fill="#fdfcef" d="M70.5,66.5c0,0-1.567,0-3.5,0s-3.5-1.567-3.5-3.5c0-1.781,1.335-3.234,3.055-3.455 C66.527,59.366,66.5,59.187,66.5,59c0-1.933,1.567-3.5,3.5-3.5c1.032,0,1.95,0.455,2.59,1.165c0.384-1.808,1.987-3.165,3.91-3.165 c2.209,0,4,1.791,4,4c0,0.191-0.03,0.374-0.056,0.558C80.872,57.714,81.408,57.5,82,57.5c1.228,0,2.245,0.887,2.455,2.055 C84.634,59.527,84.813,59.5,85,59.5c1.933,0,3.5,1.567,3.5,3.5s-1.567,3.5-3.5,3.5s-7.5,0-7.5,0V67h-7V66.5z"/><path fill="#472b29" d="M68.75,62c0.138,0,0.25-0.112,0.25-0.25c0-1.223-0.995-2.218-2.218-2.218 c-0.034,0.009-0.737-0.001-1.244,0.136c-0.133,0.036-0.212,0.173-0.176,0.306c0.036,0.134,0.173,0.213,0.306,0.176 c0.444-0.12,1.1-0.12,1.113-0.118c0.948,0,1.719,0.771,1.719,1.718C68.5,61.888,68.612,62,68.75,62z"/><circle cx="75.5" cy="66.5" r=".5" fill="#472b29"/><path fill="#472b29" d="M67,67h3.5c0.276,0,0.5-0.224,0.5-0.5S70.776,66,70.5,66H67c-1.654,0-3-1.346-3-3 c0-1.496,1.125-2.768,2.618-2.959c0.134-0.018,0.255-0.088,0.336-0.196s0.115-0.244,0.094-0.377C67.025,59.314,67,59.16,67,59 c0-1.654,1.346-3,3-3c0.85,0,1.638,0.355,2.219,1c0.125,0.139,0.321,0.198,0.5,0.148c0.182-0.049,0.321-0.195,0.36-0.379 C73.42,55.165,74.859,54,76.5,54c1.93,0,3.5,1.57,3.5,3.5c0,0.143-0.021,0.28-0.041,0.418c-0.029,0.203,0.063,0.438,0.242,0.54 c0.179,0.102,0.396,0.118,0.556-0.01C81.122,58.155,81.551,58,82,58c0.966,0,1.792,0.691,1.963,1.644 c0.048,0.267,0.296,0.446,0.569,0.405C84.686,60.025,84.84,60,85,60c1.654,0,3,1.346,3,3s-1.346,3-3,3h-7.5 c-0.276,0-0.5,0.224-0.5,0.5s0.224,0.5,0.5,0.5H85c2.206,0,4-1.794,4-4s-1.794-4-4-4c-0.059,0-0.116,0.002-0.174,0.006 C84.412,57.82,83.289,57,82,57c-0.349,0-0.689,0.061-1.011,0.18C80.824,54.847,78.874,53,76.5,53 c-1.831,0-3.466,1.127-4.153,2.774C71.667,55.276,70.845,55,70,55c-2.206,0-4,1.794-4,4c0,0.048,0.001,0.095,0.004,0.142 C64.261,59.59,63,61.169,63,63C63,65.206,64.794,67,67,67z"/><path fill="#472b29" d="M72.5,66c0.159,0,0.841,0,1,0c0.276,0,0.5,0.224,0.5,0.5c0,0.276-0.224,0.5-0.5,0.5 c-0.159,0-0.841,0-1,0c-0.276,0-0.5-0.224-0.5-0.5C72,66.224,72.224,66,72.5,66z"/></g></svg>